<svg width="20" height="20" viewBox="0 0 20 20" fill="none" xmlns="http://www.w3.org/2000/svg">
<g clip-path="url(#clip0_3605_5239)">
<path d="M13.1915 10.7924L10 15H2.96875C2.67765 15 2.4414 14.7775 2.4414 14.5033C2.4414 14.0547 2.0227 13.6755 1.52734 13.6755C1.23625 13.6755 1 13.453 1 13.1788V11.3245C1 11.0503 1.23625 10.8278 1.52734 10.8278C2.0227 10.8278 2.4414 10.4487 2.4414 10C2.4414 9.55132 2.0227 9.17218 1.52734 9.17218C1.23625 9.17218 1 8.94967 1 8.6755V6.82119C1 6.54702 1.23625 6.3245 1.52734 6.3245C2.0227 6.3245 2.4414 5.94537 2.4414 5.49669C2.4414 5.22252 2.67765 5 2.96875 5H10L13.1915 10.7924Z" fill="url(#paint0_linear_3605_5239)"/>
<path d="M17.5586 10C17.5586 10.4487 17.9773 10.8278 18.4727 10.8278C18.7638 10.8278 19 11.0503 19 11.3245V13.1788C19 13.453 18.7638 13.6755 18.4727 13.6755C17.9773 13.6755 17.5586 14.0547 17.5586 14.5033C17.5586 14.7775 17.3223 15 17.0312 15H10V5H17.0312C17.3223 5 17.5586 5.22252 17.5586 5.49669C17.5586 5.94537 17.9773 6.3245 18.4727 6.3245C18.7638 6.3245 19 6.54702 19 6.82119V8.6755C19 8.94967 18.7638 9.17218 18.4727 9.17218C17.9773 9.17218 17.5586 9.55132 17.5586 10Z" fill="url(#paint1_linear_3605_5239)"/>
<path d="M12.0918 11.0656L10 12.8808H6.34375C6.05266 12.8808 5.81641 12.6583 5.81641 12.3842V8.14575C5.81641 7.95171 5.9363 7.77555 6.12332 7.69442C6.31035 7.6133 6.53043 7.64244 6.68688 7.7686L8.22848 9.01297L9.57813 7.31794C9.67762 7.19277 9.83406 7.11926 10 7.11926L12.0918 11.0656Z" fill="url(#paint2_linear_3605_5239)"/>
<path d="M14.1836 8.14575V12.3842C14.1836 12.6583 13.9473 12.8808 13.6563 12.8808H10V7.11926C10.166 7.11926 10.3224 7.19277 10.4219 7.31794L11.7716 9.01297L13.3132 7.7686C13.3897 7.7068 13.4834 7.66697 13.5833 7.65385C13.6832 7.64071 13.785 7.65484 13.8767 7.69453C13.9683 7.73423 14.0459 7.79783 14.1003 7.8778C14.1547 7.95778 14.1836 8.05077 14.1836 8.14575Z" fill="url(#paint3_linear_3605_5239)"/>
<mask id="mask0_3605_5239" style="mask-type:luminance" maskUnits="userSpaceOnUse" x="5" y="7" width="10" height="6">
<path d="M14.05 7.5H5.94995V12.5H14.05V7.5Z" fill="white"/>
</mask>
<g mask="url(#mask0_3605_5239)">
<path d="M8.48121 8.68985V9.52518C8.44931 9.56625 8.3994 9.61133 8.3315 9.66041C8.26461 9.70849 8.17561 9.75005 8.06448 9.7851C7.95335 9.82016 7.81496 9.83768 7.6493 9.83768C7.50833 9.83768 7.3792 9.81466 7.26189 9.76858C7.14459 9.7215 7.04324 9.65289 6.95784 9.56275C6.87346 9.4726 6.80812 9.36293 6.76182 9.23372C6.71551 9.10351 6.69236 8.95528 6.69236 8.78901V8.63726C6.69236 8.472 6.71345 8.32476 6.75564 8.19556C6.79886 8.06535 6.8606 7.95518 6.94085 7.86503C7.02112 7.77489 7.11784 7.70678 7.23102 7.6607C7.34524 7.61363 7.47437 7.59009 7.61843 7.59009C7.80261 7.59009 7.95489 7.62014 8.07529 7.68024C8.1967 7.73933 8.29035 7.82146 8.35619 7.92663C8.42205 8.0318 8.46373 8.15199 8.48121 8.2872H8.10152C8.08917 8.21109 8.06499 8.14298 8.02898 8.08288C7.99401 8.02279 7.94357 7.97571 7.87773 7.94165C7.8129 7.9066 7.72852 7.88907 7.6246 7.88907C7.53508 7.88907 7.45636 7.9056 7.38845 7.93865C7.32055 7.9717 7.26394 8.02028 7.21867 8.08438C7.17443 8.14849 7.14099 8.22661 7.11835 8.31875C7.09572 8.4109 7.08439 8.51607 7.08439 8.63426V8.78901C7.08439 8.9092 7.09726 9.01587 7.12298 9.10902C7.14973 9.20217 7.1878 9.2808 7.2372 9.3449C7.28761 9.409 7.34884 9.45758 7.42087 9.49064C7.4929 9.52268 7.57418 9.53871 7.66473 9.53871C7.75322 9.53871 7.82576 9.5317 7.88235 9.51768C7.93894 9.50266 7.98372 9.48512 8.01663 9.4651C8.05059 9.44406 8.07682 9.42402 8.09536 9.405V8.9708H7.62769V8.68985H8.48121ZM9.32393 7.62014V9.80764H8.93653V7.62014H9.32393ZM10.1929 7.62014V9.80764H9.80548V7.62014H10.1929ZM11.1097 8.57717V8.87615H10.0941V8.57717H11.1097ZM11.2378 7.62014V7.92062H10.0941V7.62014H11.2378ZM12.5019 7.62014V9.80764H12.1176V7.62014H12.5019ZM13.2072 7.62014V7.92062H11.4184V7.62014H13.2072ZM6.65532 12.3076H6.1753L6.17839 12.0087H6.65532C6.79423 12.0087 6.9105 11.9791 7.00413 11.92C7.0988 11.8609 7.1698 11.7763 7.21714 11.6661C7.26549 11.5559 7.28968 11.4247 7.28968 11.2725V11.1538C7.28968 11.0356 7.27578 10.9309 7.248 10.8398C7.22125 10.7486 7.18112 10.672 7.12761 10.6099C7.07513 10.5478 7.01031 10.5008 6.93314 10.4687C6.85699 10.4366 6.76902 10.4206 6.66921 10.4206H6.16604V10.1201H6.66921C6.81841 10.1201 6.95475 10.1447 7.07822 10.1938C7.2017 10.2418 7.3082 10.3114 7.39771 10.4026C7.48826 10.4937 7.55772 10.6029 7.60608 10.7301C7.65444 10.8573 7.67862 10.9995 7.67862 11.1568V11.2725C7.67862 11.4297 7.65444 11.572 7.60608 11.6992C7.55772 11.8264 7.48826 11.9355 7.39771 12.0267C7.30716 12.1168 7.19913 12.1864 7.07359 12.2355C6.94909 12.2836 6.80966 12.3076 6.65532 12.3076ZM6.38985 10.1201V12.3076H6.00244V10.1201H6.38985ZM8.06758 10.1201H8.86244C9.03325 10.1201 9.17886 10.1452 9.29923 10.1953C9.41962 10.2453 9.51171 10.3195 9.57552 10.4176C9.64034 10.5148 9.67276 10.635 9.67276 10.7782C9.67276 10.8874 9.65218 10.9835 9.61101 11.0667C9.56985 11.1498 9.51171 11.2199 9.4366 11.277C9.36148 11.3331 9.27197 11.3767 9.16806 11.4077L9.05074 11.4633H8.33612L8.33305 11.1643H8.86861C8.96123 11.1643 9.03839 11.1483 9.10013 11.1162C9.16187 11.0842 9.20818 11.0406 9.23904 10.9855C9.27094 10.9294 9.28688 10.8663 9.28688 10.7962C9.28688 10.7201 9.27146 10.654 9.24058 10.5979C9.21074 10.5408 9.16444 10.4972 9.10167 10.4672C9.03891 10.4361 8.95918 10.4206 8.86244 10.4206H8.45498V12.3076H8.06758V10.1201ZM9.35016 12.3076L8.82232 11.3251L9.22825 11.3236L9.76382 12.2881V12.3076H9.35016ZM11.8506 11.1538V11.274C11.8506 11.4393 11.8284 11.5875 11.7841 11.7187C11.74 11.8499 11.6767 11.9616 11.5943 12.0537C11.5131 12.1459 11.4153 12.2165 11.3011 12.2656C11.1869 12.3136 11.0603 12.3377 10.9214 12.3377C10.7835 12.3377 10.6574 12.3136 10.5432 12.2656C10.4301 12.2165 10.3318 12.1459 10.2485 12.0537C10.1651 11.9616 10.1002 11.8499 10.054 11.7187C10.0087 11.5875 9.98608 11.4393 9.98608 11.274V11.1538C9.98608 10.9885 10.0087 10.8408 10.054 10.7106C10.0993 10.5794 10.1631 10.4677 10.2454 10.3755C10.3288 10.2824 10.427 10.2118 10.5402 10.1637C10.6544 10.1146 10.7805 10.0901 10.9183 10.0901C11.0572 10.0901 11.1838 10.1146 11.298 10.1637C11.4122 10.2118 11.5105 10.2824 11.5928 10.3755C11.6752 10.4677 11.7384 10.5794 11.7826 10.7106C11.8279 10.8408 11.8506 10.9885 11.8506 11.1538ZM11.4631 11.274V11.1508C11.4631 11.0286 11.4508 10.9209 11.4261 10.8278C11.4025 10.7336 11.367 10.655 11.3197 10.5919C11.2733 10.5278 11.2162 10.4797 11.1483 10.4477C11.0803 10.4146 11.0038 10.3981 10.9183 10.3981C10.8329 10.3981 10.7568 10.4146 10.6899 10.4477C10.623 10.4797 10.5659 10.5278 10.5186 10.5919C10.4722 10.655 10.4368 10.7336 10.4121 10.8278C10.3873 10.9209 10.375 11.0286 10.375 11.1508V11.274C10.375 11.3962 10.3873 11.5044 10.4121 11.5985C10.4368 11.6927 10.4728 11.7723 10.5201 11.8374C10.5684 11.9015 10.6261 11.9501 10.693 11.9831C10.7599 12.0152 10.836 12.0312 10.9214 12.0312C11.0078 12.0312 11.0845 12.0152 11.1514 11.9831C11.2182 11.9501 11.2748 11.9015 11.3212 11.8374C11.3674 11.7723 11.4025 11.6927 11.4261 11.5985C11.4508 11.5044 11.4631 11.3962 11.4631 11.274ZM13.0915 11.4918H12.5065V11.1929H13.0915C13.1934 11.1929 13.2756 11.1768 13.3384 11.1448C13.4012 11.1127 13.447 11.0687 13.4758 11.0126C13.5057 10.9555 13.5206 10.8904 13.5206 10.8173C13.5206 10.7481 13.5057 10.6835 13.4758 10.6234C13.447 10.5624 13.4012 10.5133 13.3384 10.4762C13.2756 10.4392 13.1934 10.4206 13.0915 10.4206H12.6254V12.3076H12.2379V10.1201H13.0915C13.2654 10.1201 13.4131 10.1502 13.5345 10.2103C13.6569 10.2694 13.75 10.3515 13.8138 10.4567C13.8776 10.5609 13.9095 10.68 13.9095 10.8143C13.9095 10.9555 13.8776 11.0767 13.8138 11.1778C13.75 11.279 13.6569 11.3566 13.5345 11.4107C13.4131 11.4648 13.2654 11.4918 13.0915 11.4918Z" fill="#6C393D"/>
</g>
<path d="M14.68 6.33337H5.31999C4.37558 6.33337 3.60999 7.04226 3.60999 7.91671V12.0834C3.60999 12.9578 4.37558 13.6667 5.31999 13.6667H14.68C15.6244 13.6667 16.39 12.9578 16.39 12.0834V7.91671C16.39 7.04226 15.6244 6.33337 14.68 6.33337Z" stroke="#B63448" stroke-width="0.4"/>
<path d="M5.31996 6.33333C5.31996 6.28731 5.23937 6.25 5.13996 6.25C5.04055 6.25 4.95996 6.28731 4.95996 6.33333V13.6667C4.95996 13.7127 5.04055 13.75 5.13996 13.75C5.23937 13.75 5.31996 13.7127 5.31996 13.6667V6.33333Z" fill="#B63448"/>
<path d="M15.0401 6.33333C15.0401 6.28731 14.9595 6.25 14.8601 6.25C14.7606 6.25 14.6801 6.28731 14.6801 6.33333V13.6667C14.6801 13.7127 14.7606 13.75 14.8601 13.75C14.9595 13.75 15.0401 13.7127 15.0401 13.6667V6.33333Z" fill="#B63448"/>
</g>
<defs>
<linearGradient id="paint0_linear_3605_5239" x1="10" y1="5" x2="10" y2="15" gradientUnits="userSpaceOnUse">
<stop stop-color="#DF919A"/>
<stop offset="1" stop-color="#EF6470"/>
</linearGradient>
<linearGradient id="paint1_linear_3605_5239" x1="10" y1="5" x2="10" y2="15" gradientUnits="userSpaceOnUse">
<stop stop-color="#DF919A"/>
<stop offset="1" stop-color="#EF6470"/>
</linearGradient>
<linearGradient id="paint2_linear_3605_5239" x1="10" y1="5.00005" x2="10" y2="15.0001" gradientUnits="userSpaceOnUse">
<stop stop-color="#DF919A"/>
<stop offset="1" stop-color="#EF6470"/>
</linearGradient>
<linearGradient id="paint3_linear_3605_5239" x1="10" y1="5.00005" x2="10" y2="15.0001" gradientUnits="userSpaceOnUse">
<stop stop-color="#DF919A"/>
<stop offset="1" stop-color="#EF6470"/>
</linearGradient>
<clipPath id="clip0_3605_5239">
<rect width="18" height="10" fill="white" transform="translate(1 5)"/>
</clipPath>
</defs>
</svg>
